
        <svg xmlns="http://www.w3.org/2000/svg" xmlns:xlink="http://www.w3.org/1999/xlink" version="1.1" width="3130.4781947069364" height="3178.884468268968" viewBox="0 0 3130.4781947069364 3178.884468268968">
			
			<g transform="scale(8.94422341344839) translate(10, 10)">
				<defs id="SvgjsDefs5154"><linearGradient id="SvgjsLinearGradient5161"><stop id="SvgjsStop5162" stop-color="#7d141d" offset="0"/><stop id="SvgjsStop5163" stop-color="#ff1e27" offset="1"/></linearGradient></defs><g id="SvgjsG5155" featureKey="rootContainer" transform="matrix(1.773923596759756,0,0,1.773923596759756,0.0006200246793865686,0.0003059944444312295)" fill="#fff"><path xmlns="http://www.w3.org/2000/svg" d="M17.914 148.907zM22.657 154.94a90.586 90.586 0 0 0 5.861 6.251c6.914 6.805 15.159 12.525 24.004 16.851 3.259 1.526 6.265 3.107 9.787 4.468.88.338 1.779.7 2.724 1.026.953.302 1.941.604 2.974.903 1.027.321 2.122.549 3.267.786 1.146.23 2.336.493 3.614.624a91.24 91.24 0 0 1-18.434-5.99 93.833 93.833 0 0 1-16.873-9.842c-10.548-7.727-19.57-17.648-26.16-28.989-.272-.339-.685-.985-1.18-1.808l-.796-1.348-.803-1.551c-.534-1.076-1.149-2.168-1.62-3.226a71.281 71.281 0 0 0-1.326-2.748c2.048 5.101 4.412 9.563 7.059 13.806a93.473 93.473 0 0 0 3.869 5.697c-.192-.259-.392-.511-.583-.771a95.012 95.012 0 0 0 4.6 5.841l.016.02zM18.039 149.078l-.125-.17.125.17zM1.335 106.042l-.483-3.875c.256 2.365.553 5.008 1.096 7.654l-.327-1.879a23.961 23.961 0 0 1-.286-1.9zM85.812 185.575c6.652.673 13.628.472 20.461-.609 6.837-1.077 13.524-2.987 19.741-5.449-11.45 4.503-23.602 6.506-35.49 6.171-1.591-.025-3.159 0-4.712-.113z"/><path xmlns="http://www.w3.org/2000/svg" d="M46.426 171.967l-.259-.165c.087.055.172.111.259.165zM46.167 171.802zM43.653 170.135zM56.077 177.284A83.837 83.837 0 0 0 73.2 183.1c-9.688-2.21-18.805-6.109-26.774-11.133 3.06 1.947 6.277 3.749 9.651 5.317zM177.002 107.094c.098-1.58.296-3.238.346-4.027.594-5.071.77-9.401.745-13.745-.11-.783-.425-2.25-.55-3.918-.153-1.672-.378-3.309-.568-4.924-.289-1.601-.538-3.186-.854-4.74 2.275 11.617 2.237 23.279.144 34.282a94.97 94.97 0 0 1 .737-2.928z"/><path xmlns="http://www.w3.org/2000/svg" d="M.887 83.482c.848-6.9 2.653-13.626 4.37-18.107l-.695 3.28c.429-.961 1.122-3.194 2.067-5.557l.682-1.802.753-1.747c.5-1.131.92-2.203 1.363-3.025-.303.771-.595 1.602-.947 2.436-.345.837-.732 1.687-1.101 2.542l1.514-3.409A111.863 111.863 0 0 0 4.954 69.8c-1.133 4.352-2.029 8.926-2.511 13.032-.14 1.024-.189 2.024-.28 2.978-.067.954-.183 1.864-.192 2.724-.042 1.719-.1 3.224-.071 4.428.105 2.409.25 3.61.459 2.939.411-1.333.403-8.188 1.837-16.767.767-4.276 1.868-8.966 3.362-13.561 1.483-4.599 3.427-9.058 5.44-12.992l-.592 1.292-.545 1.331-1.116 2.691-1.024 2.78-.521 1.402c-.153.476-.308.954-.461 1.434-1.32 3.807-2.307 7.816-3.167 11.857l-.559 3.052c-.205 1.014-.292 2.046-.444 3.067-.318 2.041-.434 4.097-.611 6.129-.199 4.074-.239 8.098.13 11.946-.015-.914-.03-1.726-.017-2.512l.115-2.355c.048-.809.039-1.667.115-2.65.07-.983.134-2.091.19-3.402.391-6.608 1.572-13.15 3.408-19.481 1.75-6.358 3.814-11.957 6.889-17.03l.801-1.526c.542-1.024.993-2.034 1.566-3.064.653-1.13 1.278-1.976 1.784-2.751.521-.767.963-1.441 1.469-2.095l3.682-5.082c.075-.009-.022.185-.2.473a28.962 28.962 0 0 1 1.959-2.49c.755-.875 1.488-1.803 2.109-2.569.146-.007.288-.011.623-.251 8.65-9.197 19.295-16.692 31.291-21.417l2.667-1.039 2.7-.899 1.343-.448 1.36-.38 2.71-.753c1.55-.373 3.12-.751 4.721-1.091l2.437-.426c.819-.141 1.642-.3 2.484-.378 1.674-.201 3.134-.625 3.921-.729 4.369-.249 8.73-.199 13.849.216.397.007 1.015.043 1.732.082.717.041 1.537.061 2.332.134.932.21 1.927.418 2.971.621 6.369.988 12.527 2.754 18.386 5.103l-.007-.028 2.244.894 2.29 1.058c1.571.684 3.11 1.559 4.7 2.383.798.407 1.554.904 2.338 1.354.77.474 1.576.894 2.32 1.412 1.508 1.002 3.037 1.961 4.446 3.032a99.912 99.912 0 0 1 6.6 5.198c.046.042.094.081.14.122l.042.038 1.457 1.322 1.394 1.391 1.395 1.392c.462.467.89.967 1.337 1.449-.216-.35-.208-.491-.2-.63-.689-.66-1.504-1.441-2.309-2.21 1.343 1.222 2.515 2.327 3.477 3.229.371.474.776.94 1.16 1.449l1.186 1.566 1.261 1.629 1.255 1.752c2.226 2.838 4.191 5.874 6.057 8.97.864 1.588 1.817 3.131 2.586 4.774l1.213 2.436 1.092 2.497c.314.533.192.022.231-.068 1.225 2.962 2.21 6.042 3.102 9.146a88.212 88.212 0 0 1 3.408 17.211c.225 1.378.321 2.772.52 4.153l-.123 2.924c-.001 1.103.057 2.206.01 3.311l-.128 3.326c-.016.75-.124 1.569-.187 2.459-.084.888-.128 1.846-.256 2.856l-.412 3.192c-.132 1.119-.387 2.269-.583 3.471a90.635 90.635 0 0 1-4.312 15.482c-.242.826-.427 1.486-.592 1.855-.627 1.501-1.296 2.954-1.942 4.385-.723 1.394-1.386 2.788-2.127 4.108a86.09 86.09 0 0 1-7.949 12.379c-.336.439-.649.885-.987 1.297l-.998 1.206c-.66.779-1.25 1.558-1.876 2.234-1.251 1.352-2.301 2.606-3.286 3.549-1.128 1.178-1.027 1.233-.246.665a35.07 35.07 0 0 0 1.608-1.262l2.122-1.914c.776-.677 1.519-1.441 2.235-2.161.708-.725 1.416-1.386 1.962-1.984 1.101-1.191 1.824-1.926 1.67-1.599-1.777 3.345-5.013 7.471-9.743 12.035-2.413 2.227-5.128 4.647-8.339 6.98-1.566 1.221-3.307 2.338-5.082 3.558-1.834 1.123-3.708 2.353-5.757 3.445-4.484 2.442 3.365-1.475 3.577-1.512a22.87 22.87 0 0 1-2.377 1.64c-1.478.786-2.943 1.597-4.474 2.273-.895.411-1.774.855-2.679 1.239l-2.729 1.122 1.444-.568c2.952-1.173 5.711-2.555 8.202-3.922-.936.566-1.96 1.221-3.082 1.812-1.203.622-2.448 1.302-3.697 1.909l-3.625 1.686c12.968-4.711 24.885-12.507 34.319-22.67 4.723-5.066 8.935-10.631 12.369-16.651a93.904 93.904 0 0 0 8.288-18.999c-3.154 9.93-8.071 19.052-13.981 26.765 10.744-14.507 17.15-32.293 17.999-50.636-.001 1.011-.101 2.018-.168 3.025-.083 1.007-.123 2.018-.241 3.022-.257 2.005-.441 4.021-.827 6.009-.624 4-1.636 7.931-2.782 11.815 2.262-7.021 3.613-14.424 4.145-21.869.554-7.451.092-14.947-1.057-22.211 1.974 9.622 2.301 20.524.619 31.298 1.182-6.949 1.482-14.112 1.028-21.214-.102-2.713-.422-5.407-.685-7.901-.377-2.476-.662-4.762-1.027-6.611 1.445 6.826 2.015 12.648 2.293 18.136-.267-11.977-2.748-24.112-7.62-35.511 2.659 6.191 4.842 12.851 6.175 19.698 1.34 6.84 1.897 13.838 1.58 20.57-.015-.788.018-1.575-.028-2.366l-.107-2.391c.287 10.85-1.384 21.604-4.696 31.717-1.662 5.056-3.715 9.969-6.2 14.644a95.521 95.521 0 0 1-8.56 13.316c3.673-4.29 7.551-10.354 10.646-17.015 3.081-6.675 5.368-13.894 6.941-20.199-2.314 11.322-6.907 22.494-13.571 32.471-6.646 9.985-15.351 18.764-25.423 25.502-10.06 6.759-21.474 11.437-33.187 13.748a94.608 94.608 0 0 1-17.657 1.809 94.462 94.462 0 0 1-17.361-1.515l3.005.571c1.002.19 2.018.295 3.026.445 2.016.324 4.055.446 6.087.633 4.073.229 8.168.306 12.25-.005 4.089-.217 8.152-.827 12.196-1.572 2.006-.456 4.036-.829 6.017-1.414.994-.278 2-.521 2.987-.83l2.955-.958c-1.492.462-3.062 1.074-4.739 1.523l-2.101.618a91.772 91.772 0 0 0 12.91-4.496 89.46 89.46 0 0 0 5.651-2.705 96.653 96.653 0 0 1-10.714 4.872 98.407 98.407 0 0 1-21.66 5.382c-1.11.176-2.122.231-3.029.326l-2.428.24c-1.429.113-2.484.164-3.222.245-1.477.147-1.687.284-1.099.397.587.113 1.971.203 3.673.251 1.697-.01 3.71-.101 5.541-.268 18.397-1.887 35.288-9.107 48.824-19.916 13.545-10.811 23.919-25.172 29.701-41.467.363-.946.642-1.922.944-2.89.293-.971.617-1.932.882-2.912.491-1.97 1.072-3.917 1.448-5.917l.619-2.985.487-3.012.241-1.507.172-1.517.342-3.034c.698-8.114.422-16.315-.812-24.363-.66-4.554-1.82-9.961-3.315-14.777l-1.15-3.484c-.4-1.107-.825-2.151-1.203-3.133l-.557-1.415-.571-1.271-.981-2.124c-3.134-6.359-7.072-12.424-11.682-18.065-4.605-5.643-9.896-10.868-15.861-15.418l-2.244-1.703-2.327-1.608-1.166-.806-1.203-.756-2.417-1.508c-3.295-1.904-6.67-3.739-10.228-5.261-3.521-1.598-7.206-2.895-10.957-4.055-1.895-.52-3.781-1.1-5.724-1.499-.968-.209-1.928-.463-2.907-.638l-2.944-.521C100.363.01 93.04-.285 85.724.265 78.412.83 71.069 2.218 64.028 4.614l-2.635.913c-.881.297-1.73.682-2.597 1.019-.858.359-1.735.673-2.577 1.069l-2.532 1.173c-.852.376-1.675.808-2.496 1.245l-2.469 1.297-2.402 1.412c-.8.472-1.606.933-2.372 1.458l-2.324 1.528c-.782.497-1.506 1.078-2.261 1.612-.741.554-1.51 1.07-2.226 1.654l-2.157 1.737c-.729.565-1.417 1.178-2.103 1.792l-2.063 1.83-1.971 1.919c-.656.639-1.319 1.271-1.93 1.951-5.031 5.298-9.451 11.078-13.066 17.194A99.518 99.518 0 0 0 5.18 64.379C.805 77.299-.45 90.402.134 102.237c-.126-4.872-.147-11.859.753-18.755zm141.132 90.446a96.807 96.807 0 0 0 8.765-6.389c-2.84 2.339-5.758 4.499-8.765 6.389zm40.217-54.282c-.299.901-.552 1.791-.882 2.641l-.957 2.523-.466 1.248-.513 1.231a108.54 108.54 0 0 0-.997 2.501 97.307 97.307 0 0 1-6.587 13.35c-2.521 4.275-5.443 8.281-8.565 12.04-1.542 1.899-3.222 3.66-4.874 5.421l-2.581 2.523c-.847.848-1.774 1.604-2.652 2.404-.736.64-1.478 1.266-2.225 1.882a90.696 90.696 0 0 0 7.896-7.312 89.808 89.808 0 0 1-11.689 10.188c-1.036.722-2.037 1.496-3.113 2.176l-3.247 2.069-3.43 1.949c-1.167.648-2.399 1.224-3.634 1.855a74.206 74.206 0 0 1 2.685-1.508c1.021-.567 2.092-1.237 3.138-1.85 1.054-.601 2.012-1.261 2.808-1.813.796-.552 1.42-1.01 1.745-1.306-.464.315-.936.617-1.406.924a92.477 92.477 0 0 0 1.507-1.015c-.021.023-.065.059-.101.091 10.932-7.466 20.245-17.277 27.223-28.462 7.009-11.175 11.57-23.781 13.46-36.601-.41 5.142-1.352 9.248-2.543 12.851zm-6.654-65.352zm-8.448-12.698a92.37 92.37 0 0 1 7.773 14.352c.25.549.486 1.106.719 1.664 4.963 12.154 7.221 25.192 6.89 38.036.084-4.25-.198-8.498-.669-12.71-.533-4.854-1.518-9.65-2.824-14.341-2.562-9.407-6.723-18.323-12.005-26.451.485.67.996 1.396 1.525 2.166a32.826 32.826 0 0 1 1.59 2.463l-.638-1.109-.689-1.079-1.378-2.156c-.938-1.424-1.955-2.796-2.934-4.192-1.062-1.334-2.069-2.712-3.174-4.011-.836-.953-1.637-1.938-2.485-2.879 2.992 3.155 5.801 6.54 8.299 10.247zM96.886 1.152c1.467.078 2.937.221 4.407.331 1.204.101 2.402.279 3.588.413.356.015.732.039 1.204.092.471.065 1.034.186 1.769.354 5.469.912 10.459 2.283 14.001 3.699 6.798 2.573 13.123 5.774 18.86 9.471 5.739 3.69 10.889 7.887 15.246 12.471 2.008 2.179 1.422 1.704.315.646l1.662 1.764c-.736-.734-1.459-1.478-2.206-2.196l-2.301-2.09c.56.49 1.918 1.663 2.845 2.522-7.389-7.539-16.026-13.799-25.375-18.404-9.356-4.603-19.431-7.446-29.502-8.581 1.618.18 2.412.22 3.168.24-1.085-.127-2.173-.301-3.274-.401-1.479-.097-2.955-.229-4.423-.301l-4.36-.103c1.444-.001 2.907.039 4.376.073z"/><path xmlns="http://www.w3.org/2000/svg" d="M115.942 184.69l.426-.125c-.446.12-.885.252-1.334.366.304-.076.609-.15.908-.241zM160.424 146.151c4.235-5.587 7.977-12.263 10.366-18.014l-.029.006c-6.061 14.322-15.892 26.66-28.16 35.744a159.12 159.12 0 0 0 6.418-4.703c2.698-2.82 7.213-7.406 11.405-13.033zM35.35 162.846c7.172 6.412 15.821 11.992 25.448 15.751 3.754 1.413 7.585 2.651 11.503 3.523 1.944.502 3.929.812 5.899 1.181.987.175 1.987.272 2.979.412.994.129 1.986.275 2.987.333-4.519-.501-9.005-1.251-13.372-2.44-4.364-1.185-8.642-2.65-12.769-4.449a97.4 97.4 0 0 1-11.894-6.314c-3.786-2.408-7.376-5.097-10.781-7.997zM123.877 174.277l-2.219.871-2.266.756c-1.5.54-3.047.944-4.59 1.373 1.551-.39 3.111-.754 4.624-1.254l2.283-.698 2.23-.815c-.086-.044-.594.055-.062-.233zM97.683 179.965c-1.16.099-2.326.09-3.494.102-1.168.014-2.338.039-3.509-.038l1.576.148c.482.031.916.068 1.295.113 1.381-.118 2.752-.151 4.132-.325zM51.441 169.209c1.341.787 2.765 1.48 4.178 2.244.354.194.996.415 1.801.709-1.721-.739-3.37-1.655-5.046-2.505-.83-.441-1.629-.935-2.443-1.395-.812-.464-1.621-.927-2.389-1.445l.937.626.977.584 1.985 1.182z"/></g><g id="SvgjsG5156" featureKey="symbolFeature-0" transform="matrix(1.498286042292349,0,0,1.498286042292349,90.53369486918214,69.80435167640404)" fill="#fff"><path xmlns="http://www.w3.org/2000/svg" d="M84.601,72.771c-3.637-2.764-4.697-7.627-4.96-9.27c3.719-4.477,6.384-9.416,5.996-13.98  c-0.048-0.564-0.3-1.255-0.618-2.129c-0.259-0.708-0.796-2.183-0.738-2.628c0.052-0.312,0.171-0.66,0.309-1.063  c0.438-1.281,1.036-3.035,0.328-5.968c-0.433-1.779-1.403-2.597-2.046-3.138c-0.159-0.135-0.4-0.337-0.433-0.408  c-0.158-0.388-0.085-0.764,0.082-1.512c0.258-1.155,0.611-2.737-0.432-4.807c-0.893-1.768-2.201-2.39-3.066-2.802  c-0.178-0.084-0.413-0.197-0.519-0.268c-0.065-0.196-0.074-0.586-0.082-0.965c-0.027-1.284-0.068-3.225-2.075-5.218  c-0.582-0.578-2.068-1.768-4.488-1.917c0.168-2.156-0.238-4.63-1.85-6.267c-0.965-0.979-2.742-2.029-5.724-1.466  c-3.991,0.751-9.317,3.548-10.28,4.066c-4.266-1.28-6.614,0.235-9.546,2.134c-0.369,0.239-0.756,0.489-1.166,0.748  c-0.75,0.471-1.649,1.082-2.537,1.786c-0.145-0.06-0.299-0.104-0.464-0.116c-4.922-0.352-13.911-0.97-15.63,6.721  c-2.791,1.261-5.604,3.865-6.131,7.266c-0.114,0.74-0.13,1.605,0.055,2.56c-1.344,1.052-3.338,3.091-3.497,6.032  c-0.071,1.324,0.242,2.63,0.935,3.906c-0.03,0.045-0.065,0.087-0.092,0.136c-0.663,1.224-2.681,4.946-0.866,8.934  c1,2.201,3.009,4.059,5.987,5.563c0.121,1.703,0.133,6.732-3.438,10.414c-0.577,0.594-0.563,1.543,0.032,2.119  c0.291,0.283,0.668,0.424,1.044,0.424c0.392,0,0.782-0.152,1.076-0.455c3.616-3.729,4.282-8.434,4.317-11.211  c1.486,0.533,3.136,1.006,4.955,1.414c1.732,0.389,3.293,0.584,4.677,0.584c2.595,0,4.568-0.684,5.896-2.043  c1.497-1.537,1.75-3.52,1.71-4.881c1.63-0.074,2.962-0.385,3.815-0.977c2.563-1.781,2.727-4.778,2.619-6.319  c0.599-0.178,1.126-0.411,1.563-0.703c4.234-2.823,2.597-8.217,2.271-9.156c0.211-0.391,0.401-0.804,0.542-1.264  c0.778-2.544,0.311-6.092-1.896-8.369c2.344-1.227,3.857-1.594,5.438-1.97c2.45-0.584,4.983-1.188,10.236-4.623  c5.188-3.394,7.681-1.58,8.321-0.942c1.147,1.14,1.167,2.073,1.19,3.153c0,0.008,0.001,0.017,0.001,0.025  c-0.002,2.617-4.071,7.79-7.571,10.495c-0.655,0.506-0.776,1.448-0.27,2.104c0.295,0.383,0.739,0.583,1.188,0.583  c0.32,0,0.644-0.103,0.916-0.313c2.569-1.985,6.025-5.697,7.713-9.182c0.112,0.057,0.228,0.115,0.334,0.166  c0.696,0.332,1.247,0.594,1.677,1.444c0.544,1.081,0.409,1.783,0.2,2.724c-0.989,2.572-2.513,6.427-7.814,11.632  c-0.591,0.58-0.6,1.53-0.02,2.121c0.294,0.299,0.682,0.449,1.07,0.449c0.379,0,0.759-0.143,1.051-0.43  c3.553-3.487,5.529-6.381,6.866-8.978c0.059,0.051,0.119,0.104,0.175,0.151c0.501,0.422,0.862,0.728,1.063,1.55  c0.41,1.699,0.24,2.725-0.046,3.662c-1.833,5.25-5.566,9.579-5.604,9.622c-0.544,0.625-0.479,1.572,0.146,2.115  c0.284,0.248,0.636,0.369,0.985,0.369c0.418,0,0.834-0.174,1.13-0.514c0.11-0.127,1.86-2.16,3.623-5.176  c0.174,0.477,0.388,1.07,0.412,1.258c0.606,7.147-8.989,17.061-18.162,23.249c-3.04,2.049-6.044,3.357-9.225,4.742  c-4.496,1.957-9.592,4.176-15.661,8.941c-0.652,0.512-0.766,1.453-0.254,2.105c0.296,0.377,0.736,0.574,1.181,0.574  c0.324,0,0.65-0.105,0.925-0.32c3.615-2.838,6.811-4.701,9.811-6.184c0.11,0.137,0.242,0.26,0.402,0.354  c0.044,0.025,4.465,2.66,6.646,7.113c0.26,0.531,0.793,0.84,1.348,0.84c0.222,0,0.446-0.049,0.659-0.154  c0.744-0.363,1.052-1.262,0.687-2.006c-1.846-3.77-4.952-6.373-6.642-7.592c0.704-0.314,1.403-0.619,2.098-0.922  c3.31-1.441,6.436-2.801,9.704-5.006c3.232-2.18,7.374-5.463,11.01-9.254c0.726,2.629,2.292,6.377,5.613,8.902  c0.271,0.205,0.59,0.305,0.906,0.305c0.453,0,0.9-0.203,1.195-0.592C85.389,74.213,85.261,73.271,84.601,72.771z M37.975,20.466  c-0.759,1.024-1.248,2.113-1.19,3.202c0.104,1.935,1.53,3.826,3.818,5.06c1.777,0.958,4.29,1.572,6.653,0.942  c0.063,0.061,0.129,0.119,0.204,0.169c1.853,1.251,2.38,4.054,1.805,5.933c-0.271,0.885-0.884,1.94-2.269,1.94  c-3.33,0-14.058-4.221-18.151-8.921c-1.053-1.208-1.522-2.283-1.396-3.195C27.998,21.637,30.816,20.206,37.975,20.466z   M37.464,57.854c-1.239,1.273-3.925,1.492-7.768,0.627c-6.489-1.455-10.604-3.73-11.9-6.58c-0.851-1.871-0.395-3.727,0.251-5.196  c0.37,0.373,0.763,0.743,1.201,1.109c4.416,3.686,12.819,6.565,19.071,7.155C38.372,55.756,38.297,57,37.464,57.854z M43.426,51.629  c-2.242,1.555-15.986-0.887-22.256-6.118c-2.137-1.785-3.176-3.529-3.086-5.185c0.074-1.372,0.908-2.491,1.684-3.247  c0.783,1.274,1.983,2.625,3.771,3.997c5.572,4.279,14.513,7.14,20.622,7.14c0.21,0,0.414-0.007,0.616-0.013  C44.813,49.166,44.666,50.766,43.426,51.629z M47.656,44.574c-2.813,1.872-15.122-0.372-22.292-5.876  c-1.998-1.534-4.291-3.937-3.868-6.666c0.283-1.827,1.68-3.353,3.241-4.346c0.336,1.016,0.945,2.043,1.845,3.076  c4.744,5.446,16.445,9.951,20.414,9.951c0.759,0,1.458-0.163,2.098-0.441C49.299,41.593,49.255,43.508,47.656,44.574z   M54.979,23.392c-1.984,0.473-4.036,0.962-7.539,3.006c-1.41,0.824-3.536,0.702-5.414-0.311c-1.319-0.711-2.201-1.724-2.246-2.579  c-0.037-0.688,1.318-2.669,5.11-5.055c0.422-0.265,0.819-0.522,1.199-0.768c2.028-1.313,3.297-2.135,4.976-2.135  c0.761,0,1.604,0.168,2.642,0.536c2.259,0.802,3.759,1.749,5.835,3.058c0.725,0.457,1.504,0.948,2.389,1.479  C58.676,22.511,56.871,22.941,54.979,23.392z M64.703,18.9c-0.115-0.147-0.259-0.276-0.431-0.375  c-1.206-0.703-2.213-1.338-3.13-1.917c-1.223-0.771-2.304-1.448-3.477-2.059c2.006-0.957,4.903-2.206,7.174-2.634  c1.352-0.257,2.372-0.046,3.031,0.623c0.862,0.875,1.214,2.652,0.934,4.515C67.582,17.385,66.221,17.957,64.703,18.9z"/></g><g id="SvgjsG5157" featureKey="nameFeature-0" transform="matrix(0.6913171323461543,0,0,0.6913171323461543,65.58070699112594,218.76421366315483)" fill="#fff"><path d="M15.8 26.36 q-6.68 -0.28 -9.8 1.4 q-2.44 1.32 -1.68 3.12 q0.36 0.88 1.4 1.54 t2.48 0.94 q3.6 0.64 7.64 -1.36 q0 -0.72 -0.04 -2.2 l0 -0.36 q-0.04 -1.96 0 -3.08 z M2.16 42.88 l0 -0.2 q-0.04 -0.08 -0.04 -0.16 t-0.04 -0.16 l0 -0.04 q-0.08 -0.44 -0.04 -0.68 q0.12 -0.52 0.76 -0.56 q1.4 -0.08 2.92 -0.04 q2.28 0.12 2.92 0.6 q0.32 0.24 0.68 1 q0 0.04 0.04 0.12 t0.04 0.12 q0.28 0.64 0.52 0.84 q1.4 1.28 3.16 0.6 q0.8 -0.32 1.4 -0.98 t0.84 -1.46 q0.12 -0.48 0.2 -0.68 q0.28 -1.08 0.4 -1.84 q0.08 -0.44 0.12 -0.84 q-0.04 0 -0.08 0.04 q-0.44 0.48 -1.32 0.96 q-0.24 0.12 -0.6 0.32 q-0.08 0 -0.28 0.12 l-0.24 0.12 q-2.6 1.2 -6.84 0.52 q-4.48 -0.72 -6.4 -4.24 q-1.68 -3.12 -0.84 -7.2 q0.84 -4 3.6 -6.72 q3.08 -3 7.12 -2.92 q2.08 0.08 3.52 0.42 t2.8 1.18 q-0.04 -0.6 -0.12 -1.68 q-0.04 -0.24 0.16 -0.36 q0.08 -0.28 0.36 -0.28 q0.24 0 1.48 -0.08 q0.52 -0.04 0.88 -0.04 q1.96 -0.12 2.6 0.2 q0.2 0.12 0.28 0.6 q0.08 0.28 0.12 0.8 q0.16 1.2 0.28 2.84 q0.32 4.52 0.12 8.72 q-0.28 5.72 -1.52 9.48 q-1.56 4.8 -4.52 6.12 q-4.92 2.2 -8.92 1.16 q-1.32 -0.36 -2.66 -1.32 t-2.1 -2.12 q-0.36 -0.52 -0.52 -1.16 q-0.12 -0.36 -0.24 -1.12 z M16.48 22.08 q-1.4 -0.92 -2.8 -1.3 t-3.52 -0.46 q-3.72 -0.08 -6.56 2.68 q-2.6 2.56 -3.36 6.32 q-0.8 3.8 0.76 6.68 q1.72 3.16 5.8 3.8 q4 0.68 6.36 -0.44 l0.24 -0.12 q0.24 -0.12 0.28 -0.12 q0.36 -0.16 0.6 -0.32 q1.56 -0.84 1.56 -1.76 l0 -0.08 l0.08 -0.16 t0.12 -0.12 t0.14 -0.04 l0.14 0 t0.16 0.06 t0.12 0.14 q0 0.04 0.04 0.08 q0.32 1 0.08 2.56 q-0.12 0.8 -0.44 1.92 q-0.04 0.24 -0.2 0.68 q-0.28 1 -1 1.8 t-1.68 1.16 q-2.24 0.88 -4 -0.72 q-0.36 -0.32 -0.72 -1.12 l-0.04 -0.08 l-0.08 -0.12 q-0.24 -0.6 -0.44 -0.76 q-0.4 -0.32 -2.4 -0.4 q-1.52 -0.04 -2.84 0.04 l-0.04 0 q0 0.08 0.04 0.28 l0 0.04 q0 0.08 0.04 0.16 l0.04 0.2 l0 0.2 q0.2 1.36 0.6 1.96 q0.72 1.04 1.92 1.92 t2.4 1.2 q3.72 0.96 8.4 -1.12 q2.64 -1.2 4.08 -5.64 q1.2 -3.68 1.48 -9.24 q0.2 -4.2 -0.12 -8.68 q-0.12 -1.6 -0.24 -2.76 q-0.08 -0.48 -0.12 -0.76 q0 -0.08 0.12 -0.04 q-0.44 -0.2 -2.2 -0.12 q-0.32 0 -0.88 0.04 q-1.04 0.08 -1.24 0.08 q0.12 1.24 0.12 2.04 q0 0.36 -0.32 0.4 q-0.24 0.2 -0.48 0.04 z M16.6 26.04 q-0.04 1.24 0 3.36 l0 0.4 q0.04 1.52 0.04 2.28 q0 0.12 -0.08 0.24 q0 0.24 -0.24 0.32 q-4.32 2.2 -8.24 1.48 q-1.68 -0.28 -2.88 -1.06 t-1.64 -1.86 q-0.48 -1.16 0.06 -2.26 t2.02 -1.9 q3.36 -1.8 10.44 -1.48 l0.16 0.08 q0.36 0.04 0.36 0.4 z M35.13 19.76 q-3.52 1.4 -5.12 4.8 q-1.72 3.64 -0.68 7.94 t4.16 6.54 q3.44 2.44 8 1 q5 -1.56 6.8 -5.64 q1.64 -3.64 0.24 -7.76 q-1.36 -4.12 -4.8 -6.16 q-3.8 -2.24 -8.36 -0.72 l-0.24 0 z M36.49 18.64 q4.16 -0.92 7.64 1.16 q3.72 2.2 5.16 6.6 q1.48 4.4 -0.28 8.36 q-1.96 4.36 -7.28 6.08 q-4.96 1.56 -8.72 -1.16 q-3.36 -2.4 -4.48 -7 q-1.08 -4.56 0.76 -8.48 q2.04 -4.32 6.92 -5.6 q0.16 -0.04 0.28 0.04 z M38.61 26.36 q-1.32 -0.16 -2.2 0.68 q-0.88 0.88 -1 2.48 q-0.12 1.56 0.64 2.72 q0.76 1.24 2.16 1.36 q1.88 0.12 2.84 -1 q0.92 -0.96 0.84 -2.48 q-0.12 -1.56 -1.12 -2.64 q-0.88 -0.92 -2.16 -1.12 z M38.730000000000004 25.560000000000002 q0.24 0 0.52 0.08 q0.08 0 0.16 0.08 q1.12 0.36 1.96 1.2 q1.2 1.32 1.28 3.12 q0.12 1.88 -1 3.12 q-1.24 1.36 -3.48 1.24 q-1.8 -0.12 -2.8 -1.72 q-0.88 -1.4 -0.76 -3.24 q0.12 -1.88 1.28 -2.96 q0.72 -0.72 1.72 -0.88 q0.12 -0.12 0.28 -0.12 q0.44 0 0.84 0.08 z M65.94 33 q-1.88 -0.44 -3.4 0.84 q-0.72 0.64 -0.76 1.28 q0 0.64 0.8 1.12 q0.76 0.36 1.84 0.14 t1.88 -0.9 q0.76 -0.64 0.72 -1.24 q-0.04 -0.68 -1.08 -1.24 z M67.17999999999999 32.88 q0.6 0.6 0.64 1.32 q0.04 1 -1 1.92 q-1 0.8 -2.32 1.06 t-2.28 -0.26 q-1.2 -0.64 -1.22 -1.72 t1.02 -1.96 q0.96 -0.8 2.24 -1.04 q0.96 -0.2 1.84 0.04 l0.08 0 q0.4 0.12 0.76 0.28 q0.24 0.12 0.24 0.36 z M55.339999999999996 23.96 q1.56 -2.96 3.8 -4.8 q2.6 -2.12 5.68 -2.4 q5.2 -0.44 7.24 3.72 q0.8 1.68 1.16 4.24 q0.28 1.88 0.36 4.8 q0.04 0.76 0.04 2.36 q0.04 3.32 0.16 4.76 q0.2 2.16 0.72 3.32 q0.32 0.08 0.32 0.4 q0 0.4 -0.4 0.4 q-0.56 0 -1.52 0.04 q-1.04 0.08 -1.52 0.08 q-0.8 0 -1.36 -0.16 q-1.28 -0.4 -1.88 -1.8 q-1.64 0.72 -4.28 0.98 t-4.92 -0.1 q-2.84 -0.48 -4.04 -1.88 q-1.52 -1.72 -0.32 -4.4 q0.6 -1.4 1.28 -2.36 q0.88 -1.28 1.92 -1.92 q1.2 -0.72 2.8 -1.24 q0.92 -0.28 2.84 -0.72 q0.08 0 0.12 -0.04 q2.52 -0.56 3.76 -1.04 q0.24 -1.68 -0.4 -2.44 q-0.52 -0.64 -1.68 -0.52 q-1.2 0.12 -2.48 0.94 t-1.96 1.98 q-0.2 0.32 -0.52 0.12 q-0.08 -0.04 -0.12 -0.08 q-2.72 -0.56 -4.6 -1.44 q-0.24 -0.12 -0.2 -0.4 q-0.12 -0.2 0 -0.4 z M67.78 26.84 q-1.36 0.6 -4.08 1.2 l-0.04 0 q-0.04 0 -0.08 0.04 q-1.88 0.4 -2.76 0.68 q-1.52 0.48 -2.6 1.16 q-1.6 0.96 -2.92 3.92 q-0.96 2.2 0.2 3.52 q1 1.2 3.56 1.64 q2.28 0.36 4.88 0.08 t4.08 -1 q0.08 -0.04 0.16 -0.04 q0.04 0 0.04 -0.04 q0.4 -0.12 0.52 0.28 q0.48 1.36 1.52 1.68 q0.44 0.12 1.16 0.12 q0.4 0 1.4 -0.08 q0.52 0 0.84 -0.04 q-0.48 -1.2 -0.68 -3.24 q-0.12 -1.48 -0.16 -4.84 q0 -1.6 -0.04 -2.36 q-0.08 -2.84 -0.32 -4.68 q-0.36 -2.44 -1.12 -4 q-1.8 -3.68 -6.44 -3.28 q-2.84 0.24 -5.24 2.24 q-2.04 1.68 -3.52 4.36 q1.68 0.76 4.16 1.24 q0.84 -1.16 2.18 -2 t2.66 -0.96 q1.56 -0.16 2.4 0.8 q0.88 1.04 0.52 3.16 q0 0.08 -0.04 0.12 q-0.04 0.24 -0.24 0.32 z M86.63 11.48 l-0.04 0 q-0.04 -0.04 -0.12 -0.04 q-0.2 -0.08 -0.6 -0.12 q-0.68 -0.08 -1.84 -0.04 q-0.64 0 -1.56 0.04 l-0.8 0.04 l-0.36 0 q1 6.32 0.96 15.76 q0 2.12 -0.04 6.28 q-0.08 4.36 -0.08 6.48 q0.96 0 2.96 -0.04 l0.52 0 q0.8 -0.04 1.36 -0.04 q0 -0.68 0.04 -2.32 l0 -1.8 t0.04 -1.92 q0.04 -4.6 0.04 -7.84 q0 -6.04 -0.08 -9.6 q-0.16 -4.24 -0.4 -4.84 z M81.14999999999999 10.559999999999999 l0.48 0 q0.6 -0.04 0.8 -0.04 q0.92 -0.04 1.6 -0.04 q1.2 -0.04 1.92 0.04 q1.08 0.12 1.32 0.52 q0.4 0.68 0.56 5.28 q0.08 3.52 0.08 9.6 q0 3.24 -0.04 7.84 q-0.04 0.4 -0.04 1.94 l0 1.78 q-0.04 1.76 -0.04 2.44 q0 0.2 -0.12 0.32 q-0.04 0.36 -0.4 0.36 q-0.64 0 -1.64 0.04 l-0.48 0 q-2.24 0.04 -3.36 0 q-0.4 0 -0.4 -0.4 l0 -0.04 q-0.04 -0.12 -0.04 -0.2 q0 -2.2 0.08 -6.6 q0.04 -4.16 0.04 -6.28 q0.04 -9.52 -0.96 -15.84 q-0.08 -0.4 0.28 -0.48 q0.12 -0.24 0.36 -0.24 z M120.33 26.36 q-6.68 -0.28 -9.8 1.4 q-2.44 1.32 -1.68 3.12 q0.36 0.88 1.4 1.54 t2.48 0.94 q3.6 0.64 7.64 -1.36 q0 -0.72 -0.04 -2.2 l0 -0.36 q-0.04 -1.96 0 -3.08 z M106.69 42.88 l0 -0.2 q-0.04 -0.08 -0.04 -0.16 t-0.04 -0.16 l0 -0.04 q-0.08 -0.44 -0.04 -0.68 q0.12 -0.52 0.76 -0.56 q1.4 -0.08 2.92 -0.04 q2.28 0.12 2.92 0.6 q0.32 0.24 0.68 1 q0 0.04 0.04 0.12 t0.04 0.12 q0.28 0.64 0.52 0.84 q1.4 1.28 3.16 0.6 q0.8 -0.32 1.4 -0.98 t0.84 -1.46 q0.12 -0.48 0.2 -0.68 q0.28 -1.08 0.4 -1.84 q0.08 -0.44 0.12 -0.84 q-0.04 0 -0.08 0.04 q-0.44 0.48 -1.32 0.96 q-0.24 0.12 -0.6 0.32 q-0.08 0 -0.28 0.12 l-0.24 0.12 q-2.6 1.2 -6.84 0.52 q-4.48 -0.72 -6.4 -4.24 q-1.68 -3.12 -0.84 -7.2 q0.84 -4 3.6 -6.72 q3.08 -3 7.12 -2.92 q2.08 0.08 3.52 0.42 t2.8 1.18 q-0.04 -0.6 -0.12 -1.68 q-0.04 -0.24 0.16 -0.36 q0.08 -0.28 0.36 -0.28 q0.24 0 1.48 -0.08 q0.52 -0.04 0.88 -0.04 q1.96 -0.12 2.6 0.2 q0.2 0.12 0.28 0.6 q0.08 0.28 0.12 0.8 q0.16 1.2 0.28 2.84 q0.32 4.52 0.12 8.72 q-0.28 5.72 -1.52 9.48 q-1.56 4.8 -4.52 6.12 q-4.92 2.2 -8.92 1.16 q-1.32 -0.36 -2.66 -1.32 t-2.1 -2.12 q-0.36 -0.52 -0.52 -1.16 q-0.12 -0.36 -0.24 -1.12 z M121.01 22.08 q-1.4 -0.92 -2.8 -1.3 t-3.52 -0.46 q-3.72 -0.08 -6.56 2.68 q-2.6 2.56 -3.36 6.32 q-0.8 3.8 0.76 6.68 q1.72 3.16 5.8 3.8 q4 0.68 6.36 -0.44 l0.24 -0.12 q0.24 -0.12 0.28 -0.12 q0.36 -0.16 0.6 -0.32 q1.56 -0.84 1.56 -1.76 l0 -0.08 l0.08 -0.16 t0.12 -0.12 t0.14 -0.04 l0.14 0 t0.16 0.06 t0.12 0.14 q0 0.04 0.04 0.08 q0.32 1 0.08 2.56 q-0.12 0.8 -0.44 1.92 q-0.04 0.24 -0.2 0.68 q-0.28 1 -1 1.8 t-1.68 1.16 q-2.24 0.88 -4 -0.72 q-0.36 -0.32 -0.72 -1.12 l-0.04 -0.08 l-0.08 -0.12 q-0.24 -0.6 -0.44 -0.76 q-0.4 -0.32 -2.4 -0.4 q-1.52 -0.04 -2.84 0.04 l-0.04 0 q0 0.08 0.04 0.28 l0 0.04 q0 0.08 0.04 0.16 l0.04 0.2 l0 0.2 q0.2 1.36 0.6 1.96 q0.72 1.04 1.92 1.92 t2.4 1.2 q3.72 0.96 8.4 -1.12 q2.64 -1.2 4.08 -5.64 q1.2 -3.68 1.48 -9.24 q0.2 -4.2 -0.12 -8.68 q-0.12 -1.6 -0.24 -2.76 q-0.08 -0.48 -0.12 -0.76 q0 -0.08 0.12 -0.04 q-0.44 -0.2 -2.2 -0.12 q-0.32 0 -0.88 0.04 q-1.04 0.08 -1.24 0.08 q0.12 1.24 0.12 2.04 q0 0.36 -0.32 0.4 q-0.24 0.2 -0.48 0.04 z M121.13 26.04 q-0.04 1.24 0 3.36 l0 0.4 q0.04 1.52 0.04 2.28 q0 0.12 -0.08 0.24 q0 0.24 -0.24 0.32 q-4.32 2.2 -8.24 1.48 q-1.68 -0.28 -2.88 -1.06 t-1.64 -1.86 q-0.48 -1.16 0.06 -2.26 t2.02 -1.9 q3.36 -1.8 10.44 -1.48 l0.16 0.08 q0.36 0.04 0.36 0.4 z M148.9 39.72 l1 0 q0.36 -0.04 1.08 -0.08 q1 -0.08 1.48 -0.08 q0.04 -0.8 0.08 -2.16 q0.04 -0.6 0.08 -1.6 l0 -0.36 q0.04 -0.4 0.06 -0.82 t0.02 -0.58 q0.12 -2.56 0.16 -4.24 q0.12 -4 0 -6.48 q-0.16 -2.96 -0.68 -4.12 l-0.24 0 q-0.36 0 -1 0.08 q-0.2 0 -0.44 0.04 q-1 0.12 -1.12 0.16 l-0.72 0 l-0.44 0 l-0.72 0 q-0.16 0 -0.24 0.04 l0 0.08 q-0.04 0.24 -0.08 0.76 q-0.04 0.68 -0.04 2.68 q0 3.12 -0.08 4.8 q-0.16 3.84 -0.8 5.96 q-0.84 2.96 -2.68 3.12 q-1.12 0.12 -2 -0.76 q-0.72 -0.76 -1.2 -2.2 q-0.8 -2.28 -1.04 -6.44 q-0.16 -2.72 -0.04 -6.72 l0 -0.54 l0 -0.54 q0.04 -0.28 0.04 -0.44 q-1 0.04 -2.44 0.16 q-0.32 0.04 -1 0.12 q-1.24 0.12 -1.76 0.16 q-0.72 4.96 -0.16 10.72 q0.72 7.56 3.52 9.28 q2.08 1.32 5.24 0.48 q2.84 -0.76 4.76 -2.64 l0.04 -0.04 q0.04 -0.04 0.08 -0.12 l0.08 -0.16 q0.08 -0.08 0.12 -0.16 l0.04 -0.04 l0.24 -0.36 q0.08 -0.08 0.12 -0.14 t0.12 -0.06 q0.04 -0.04 0.12 -0.08 q0.12 -0.04 0.28 0.04 t0.2 0.24 q0.04 0.08 0.08 0.2 q0.04 0.16 0.04 0.4 q0 0.4 -0.04 1.04 q-0.04 0.76 -0.12 1.4 z M140.14 18.92 q0 0.28 -0.04 0.8 l0 0.54 l0 0.54 q-0.08 4 0.04 6.68 q0.52 8.88 3.36 8.64 q1.32 -0.08 2 -2.52 q0.6 -2.04 0.76 -5.76 q0.08 -1.68 0.08 -4.8 q0 -2 0.04 -2.72 q0.04 -0.56 0.08 -0.88 q0.08 -0.48 0.34 -0.62 t1.42 -0.14 l0.44 0 l0.68 0 q0.04 0 0.14 -0.02 t0.26 -0.04 t0.3 -0.04 t0.26 -0.02 l0.08 -0.04 q0.28 0 0.48 -0.04 q0.68 -0.08 1.08 -0.08 l0.4 0 l0.24 0.08 q0.16 0.08 0.24 0.24 q0.64 1.28 0.84 4.56 q0.12 2.52 0 6.56 q-0.04 1.68 -0.16 4.24 q0 0.16 -0.02 0.58 t-0.06 0.78 l0 0.4 q-0.04 1 -0.08 1.6 q-0.04 1.48 -0.08 2.32 q0.04 0.08 0.04 0.16 q0 0.2 -0.12 0.32 q-0.12 0.16 -0.32 0.16 q-0.08 0 -0.16 -0.04 q-0.52 0 -1.68 0.08 q-0.72 0.04 -1.08 0.08 q-0.8 0.04 -1.4 0 q-0.32 0 -0.36 -0.32 q-0.16 -0.16 -0.12 -0.32 q0.08 -0.48 0.16 -1.64 q0.04 -0.16 0.04 -0.36 q-0.12 0.16 -0.16 0.2 q-2.08 2.08 -5.16 2.92 q-3.48 0.92 -5.88 -0.6 q-1.68 -1.04 -2.72 -3.92 q-0.8 -2.4 -1.16 -5.96 q-0.56 -5.88 0.16 -10.92 q0 -0.12 0.08 -0.2 l0 -0.04 q-0.04 -0.4 0.36 -0.4 q0.68 -0.08 2.04 -0.2 q0.68 -0.08 1 -0.12 q1.64 -0.16 2.76 -0.16 q0.12 0 0.2 0.04 q0.36 0.08 0.36 0.4 z M169.71 33 q-1.88 -0.44 -3.4 0.84 q-0.72 0.64 -0.76 1.28 q0 0.64 0.8 1.12 q0.76 0.36 1.84 0.14 t1.88 -0.9 q0.76 -0.64 0.72 -1.24 q-0.04 -0.68 -1.08 -1.24 z M170.95000000000002 32.88 q0.6 0.6 0.64 1.32 q0.04 1 -1 1.92 q-1 0.8 -2.32 1.06 t-2.28 -0.26 q-1.2 -0.64 -1.22 -1.72 t1.02 -1.96 q0.96 -0.8 2.24 -1.04 q0.96 -0.2 1.84 0.04 l0.08 0 q0.4 0.12 0.76 0.28 q0.24 0.12 0.24 0.36 z M159.11 23.96 q1.56 -2.96 3.8 -4.8 q2.6 -2.12 5.68 -2.4 q5.2 -0.44 7.24 3.72 q0.8 1.68 1.16 4.24 q0.28 1.88 0.36 4.8 q0.04 0.76 0.04 2.36 q0.04 3.32 0.16 4.76 q0.2 2.16 0.72 3.32 q0.32 0.08 0.32 0.4 q0 0.4 -0.4 0.4 q-0.56 0 -1.52 0.04 q-1.04 0.08 -1.52 0.08 q-0.8 0 -1.36 -0.16 q-1.28 -0.4 -1.88 -1.8 q-1.64 0.72 -4.28 0.98 t-4.92 -0.1 q-2.84 -0.48 -4.04 -1.88 q-1.52 -1.72 -0.32 -4.4 q0.6 -1.4 1.28 -2.36 q0.88 -1.28 1.92 -1.92 q1.2 -0.72 2.8 -1.24 q0.92 -0.28 2.84 -0.72 q0.08 0 0.12 -0.04 q2.52 -0.56 3.76 -1.04 q0.24 -1.68 -0.4 -2.44 q-0.52 -0.64 -1.68 -0.52 q-1.2 0.12 -2.48 0.94 t-1.96 1.98 q-0.2 0.32 -0.52 0.12 q-0.08 -0.04 -0.12 -0.08 q-2.72 -0.56 -4.6 -1.44 q-0.24 -0.12 -0.2 -0.4 q-0.12 -0.2 0 -0.4 z M171.55 26.84 q-1.36 0.6 -4.08 1.2 l-0.04 0 q-0.04 0 -0.08 0.04 q-1.88 0.4 -2.76 0.68 q-1.52 0.48 -2.6 1.16 q-1.6 0.96 -2.92 3.92 q-0.96 2.2 0.2 3.52 q1 1.2 3.56 1.64 q2.28 0.36 4.88 0.08 t4.08 -1 q0.08 -0.04 0.16 -0.04 q0.04 0 0.04 -0.04 q0.4 -0.12 0.52 0.28 q0.48 1.36 1.52 1.68 q0.44 0.12 1.16 0.12 q0.4 0 1.4 -0.08 q0.52 0 0.84 -0.04 q-0.48 -1.2 -0.68 -3.24 q-0.12 -1.48 -0.16 -4.84 q0 -1.6 -0.04 -2.36 q-0.08 -2.84 -0.32 -4.68 q-0.36 -2.44 -1.12 -4 q-1.8 -3.68 -6.44 -3.28 q-2.84 0.24 -5.24 2.24 q-2.04 1.68 -3.52 4.36 q1.68 0.76 4.16 1.24 q0.84 -1.16 2.18 -2 t2.66 -0.96 q1.56 -0.16 2.4 0.8 q0.88 1.04 0.52 3.16 q0 0.08 -0.04 0.12 q-0.04 0.24 -0.24 0.32 z M190.32 39.76 q-0.32 -2.4 -0.48 -4.56 q-0.24 -3.64 0.08 -6.2 q0.44 -3.4 1.88 -4.72 q1.64 -1.52 4.4 -0.28 q0.12 -0.36 0.56 -1.44 q0.16 -0.32 0.24 -0.52 q0.48 -1.28 0.36 -1.88 q-0.2 -1.04 -1.04 -1.28 q-0.8 -0.24 -2 0.24 t-2.28 1.4 t-1.56 1.84 q-0.2 0.32 -0.56 0.16 l-0.12 -0.12 q-0.12 -0.12 -0.12 -0.28 q0 -2.32 -0.52 -2.6 q-0.2 -0.12 -0.84 -0.08 q-0.28 0.04 -0.76 0.08 l-0.04 0 q-0.04 0.04 -0.12 0.04 t-0.16 0.02 t-0.18 0.04 t-0.2 0.02 t-0.18 0.02 t-0.12 0.02 q-0.6 0.08 -1.12 0.12 q0.16 3.88 0.2 9 q0 2.16 -0.04 6.48 l0 4.44 q1 -0.04 2.72 0 l0.44 0 q1.04 0.04 1.56 0.04 z M196.4 24.96 q-2.64 -1.36 -4.08 -0.08 q-1.2 1.12 -1.6 4.24 q-0.32 2.48 -0.08 6.04 q0.16 2.2 0.52 4.76 q0.08 0.08 0.08 0.24 t-0.12 0.28 t-0.28 0.12 q-0.72 0 -2.12 -0.04 l-0.4 0 q-1.76 -0.04 -2.84 0 q-0.28 0 -0.4 -0.28 q-0.28 -0.08 -0.28 -0.4 l0 -4.56 q0.04 -4.32 0.04 -6.48 q-0.04 -5.24 -0.2 -9.2 q-0.04 -0.36 0.32 -0.44 q0.08 -0.12 0.24 -0.12 q0.6 -0.08 1.24 -0.16 q0.08 0 0.2 -0.02 t0.26 -0.04 t0.26 -0.04 t0.2 -0.02 l0.08 0 q0.52 -0.08 0.8 -0.12 q0.88 -0.08 1.32 0.2 q0.56 0.32 0.76 1.16 q0.08 0.4 0.12 0.96 q1.48 -1.76 3.6 -2.56 q1.44 -0.6 2.48 -0.28 q1.32 0.36 1.64 1.88 q0.16 0.84 -0.44 2.32 q-0.08 0.2 -0.2 0.56 q-0.52 1.16 -0.6 1.56 q0.12 0.16 0 0.36 q-0.16 0.36 -0.52 0.16 z M217.45 26.240000000000002 q-5.12 -1.56 -8.64 0.28 q-1.44 0.76 -2.3 1.98 t-0.98 2.5 q-0.08 1.32 0.6 2.28 t2.04 1.36 q3.44 1.08 9.44 -1.88 q-0.04 -2.08 -0.16 -6.52 z M218.41 32.84 l0 0.24 q0 0.4 -0.4 0.4 l-0.04 0 q-6.28 3.08 -10.04 1.96 q-1.6 -0.52 -2.46 -1.72 t-0.74 -2.76 q0.12 -1.52 1.1 -2.9 t2.62 -2.22 q3.88 -2.08 9.48 -0.28 q0.04 0 0.08 0.04 q0.08 0.04 0.14 0.1 t0.06 0.14 l0 0.08 q0.16 4.2 0.2 6.56 l0 0.04 l0 0.12 l0 0.04 l0 0.12 l0 0.04 z M218.29 10.879999999999999 q0.24 0 0.68 -0.04 q0.08 -0.04 0.44 -0.08 t0.4 -0.04 q0.68 -0.08 1.16 -0.12 q2 -0.16 2.92 0.12 q0.24 0.08 0.4 0.36 q0.04 0.16 0.08 0.4 q0.08 0.36 0.04 0.92 l0 0.6 l0 0.56 q0.24 2.6 0.08 5.88 q-0.12 1.92 -0.52 5.88 q0 0.08 -0.02 0.2 t-0.02 0.16 q-0.48 4.56 -0.52 7 q-0.12 3.8 0.48 6.8 l0 0.08 q0.28 0.24 0.06 0.54 t-1.14 0.46 q-0.72 0.12 -1.72 0.16 q-0.96 0.04 -1.68 -0.04 q-0.4 -0.04 -0.64 -0.12 q-0.4 -0.12 -0.52 -0.4 q-0.16 -0.4 -0.16 -1.48 l0 -0.72 l0 -0.4 q-0.72 0.28 -2.2 1.04 l-0.04 0.04 q-0.04 0 -0.08 0.04 q-1.32 0.64 -2 0.92 q-1.12 0.52 -2.16 0.68 q-2.96 0.56 -5.2 -0.28 t-3.56 -2.92 q-1.16 -1.8 -1.44 -4.22 t0.36 -4.9 q0.64 -2.56 2.1 -4.58 t3.5 -3.1 q4.68 -2.44 10.68 0.8 q0 -4.32 -0.2 -9.56 q-0.04 -0.12 0.08 -0.24 q0 -0.36 0.36 -0.4 z M218.25 22.08 q-6 -3.48 -10.52 -1.08 q-1.88 0.96 -3.24 2.86 t-1.96 4.3 q-0.6 2.32 -0.34 4.58 t1.34 3.9 q2.44 3.84 7.96 2.84 q0.92 -0.16 2 -0.6 q0.64 -0.28 1.92 -0.92 q0 -0.04 0.04 -0.06 t0.08 -0.02 q1.76 -0.88 2.76 -1.24 q0.36 -0.12 0.52 0.28 l0 0.08 q0.08 0.12 0.08 0.24 q0.04 0.12 0 0.72 l0 0.72 q0 0.8 0.08 1.12 l0.04 0 q0.16 0.08 0.48 0.08 q0.64 0.08 1.56 0.04 t1.64 -0.16 q0.24 -0.04 0.44 -0.12 q-0.64 -3.08 -0.52 -7 q0.04 -2.44 0.52 -7.08 q0 -0.12 0.04 -0.32 q0.4 -3.92 0.52 -5.84 q0.16 -3.24 -0.08 -5.76 l0 -0.68 l0 -0.56 q0.04 -0.52 -0.04 -0.8 l0 -0.12 q-0.76 -0.24 -2.52 -0.08 q-0.48 0.04 -1.16 0.12 q-0.04 0 -0.38 0.04 t-0.46 0.04 q-0.24 0.04 -0.4 0.08 q0.2 5.36 0.2 9.76 q0 0.08 -0.04 0.16 q0.08 0.16 0 0.36 q-0.2 0.32 -0.56 0.12 z M236.17999999999998 11.879999999999999 q-0.32 -0.12 -0.88 -0.08 q-0.48 0 -1.44 0.16 l-0.16 0 q-0.84 0.16 -1.2 0.2 q-0.44 0.04 -0.76 0 q-0.04 0.16 -0.06 0.38 t-0.06 0.38 t-0.04 0.2 q-0.08 0.6 -0.12 1 q-0.08 0.92 0.08 1.36 q0.32 0.92 2.6 0.92 q0.16 0 0.68 0.04 l0.56 0 q0.68 0.04 1 -0.08 q0 -0.2 0.04 -0.56 q0 -0.68 -0.04 -1.68 q0 -1 -0.08 -1.64 q-0.04 -0.36 -0.12 -0.56 l0 -0.04 z M231.73999999999998 11.399999999999999 q0.48 0 1.84 -0.2 q0.08 -0.04 0.12 -0.04 q1.04 -0.16 1.56 -0.16 q0.88 -0.04 1.36 0.2 q0.16 0.08 0.28 0.28 l0.08 0.24 q0.04 0.24 0.08 0.64 q0.12 0.72 0.12 1.76 q0.04 0.96 0.04 1.72 q-0.04 0.4 -0.08 0.6 q0 0.16 -0.04 0.24 q-0.04 0.24 -0.2 0.32 q-0.44 0.28 -1.56 0.24 l-0.56 0 q-0.52 -0.04 -0.64 -0.04 q-2.84 0 -3.36 -1.44 q-0.2 -0.64 -0.12 -1.72 q0.04 -0.4 0.16 -1.04 q0 -0.04 0.08 -0.56 t0.08 -0.64 q0.04 -0.12 0.04 -0.24 q0.04 -0.4 0.44 -0.36 q0.2 0.04 0.28 0.2 z M231.57999999999998 19.24 q-0.16 1.72 -0.04 10.52 q0.04 4 0.16 6.64 q0.12 2.88 0.24 3.32 q0 0.04 0.04 0.04 q0.08 0.04 0.28 0.04 q0.4 0.08 1.08 0 q0.36 0 0.8 -0.08 l0.2 -0.04 q0.24 0 0.46 -0.02 t0.26 -0.02 l0.52 0 l0.24 0 q0.4 0.04 0.56 -0.04 l0 -0.08 l0 -0.08 q-0.04 -0.2 0.08 -0.32 q0.44 -3.12 0.28 -10.2 q-0.08 -3.64 -0.32 -6.12 q-0.28 -2.68 -0.68 -3.24 l0 -0.04 q-0.08 0 -0.12 -0.04 q-0.2 -0.08 -0.48 -0.12 q-0.56 -0.08 -1.44 -0.12 q-0.4 -0.04 -0.88 -0.04 l-0.4 0 l-0.18 0 t-0.18 -0.04 l-0.48 0 l0 0.04 l0 0.04 z M231.42 18.36 l0.64 0 q0.04 0.04 0.2 0.04 l0.16 0 l0.4 0 q0.52 0 0.92 0.04 q0.92 0.04 1.52 0.12 q0.88 0.16 1.12 0.48 q0.52 0.72 0.84 3.68 q0.24 2.52 0.32 6.16 q0.16 7.68 -0.36 10.64 q0.04 0.56 -0.44 0.8 q-0.32 0.16 -0.96 0.12 l-0.24 0 l-0.4 0 l-0.14 0 t-0.22 0.02 l-0.24 0.04 t-0.2 0.02 l-0.12 0 q-0.44 0.08 -0.8 0.08 q-0.76 0.08 -1.24 0 q-0.32 -0.04 -0.52 -0.12 q-0.32 -0.12 -0.44 -0.4 q-0.36 -0.96 -0.48 -10.32 q-0.12 -8.84 0.04 -10.6 q0.04 -0.2 0.2 -0.32 q-0.04 -0.08 0 -0.16 q0.04 -0.4 0.44 -0.32 z M253.54999999999998 33 q-1.88 -0.44 -3.4 0.84 q-0.72 0.64 -0.76 1.28 q0 0.64 0.8 1.12 q0.76 0.36 1.84 0.14 t1.88 -0.9 q0.76 -0.64 0.72 -1.24 q-0.04 -0.68 -1.08 -1.24 z M254.79 32.88 q0.6 0.6 0.64 1.32 q0.04 1 -1 1.92 q-1 0.8 -2.32 1.06 t-2.28 -0.26 q-1.2 -0.64 -1.22 -1.72 t1.02 -1.96 q0.96 -0.8 2.24 -1.04 q0.96 -0.2 1.84 0.04 l0.08 0 q0.4 0.12 0.76 0.28 q0.24 0.12 0.24 0.36 z M242.95 23.96 q1.56 -2.96 3.8 -4.8 q2.6 -2.12 5.68 -2.4 q5.2 -0.44 7.24 3.72 q0.8 1.68 1.16 4.24 q0.28 1.88 0.36 4.8 q0.04 0.76 0.04 2.36 q0.04 3.32 0.16 4.76 q0.2 2.16 0.72 3.32 q0.32 0.08 0.32 0.4 q0 0.4 -0.4 0.4 q-0.56 0 -1.52 0.04 q-1.04 0.08 -1.52 0.08 q-0.8 0 -1.36 -0.16 q-1.28 -0.4 -1.88 -1.8 q-1.64 0.72 -4.28 0.98 t-4.92 -0.1 q-2.84 -0.48 -4.04 -1.88 q-1.52 -1.72 -0.32 -4.4 q0.6 -1.4 1.28 -2.36 q0.88 -1.28 1.92 -1.92 q1.2 -0.72 2.8 -1.24 q0.92 -0.28 2.84 -0.72 q0.08 0 0.12 -0.04 q2.52 -0.56 3.76 -1.04 q0.24 -1.68 -0.4 -2.44 q-0.52 -0.64 -1.68 -0.52 q-1.2 0.12 -2.48 0.94 t-1.96 1.98 q-0.2 0.32 -0.52 0.12 q-0.08 -0.04 -0.12 -0.08 q-2.72 -0.56 -4.6 -1.44 q-0.24 -0.12 -0.2 -0.4 q-0.12 -0.2 0 -0.4 z M255.39 26.84 q-1.36 0.6 -4.08 1.2 l-0.04 0 q-0.04 0 -0.08 0.04 q-1.88 0.4 -2.76 0.68 q-1.52 0.48 -2.6 1.16 q-1.6 0.96 -2.92 3.92 q-0.96 2.2 0.2 3.52 q1 1.2 3.56 1.64 q2.28 0.36 4.88 0.08 t4.08 -1 q0.08 -0.04 0.16 -0.04 q0.04 0 0.04 -0.04 q0.4 -0.12 0.52 0.28 q0.48 1.36 1.52 1.68 q0.44 0.12 1.16 0.12 q0.4 0 1.4 -0.08 q0.52 0 0.84 -0.04 q-0.48 -1.2 -0.68 -3.24 q-0.12 -1.48 -0.16 -4.84 q0 -1.6 -0.04 -2.36 q-0.08 -2.84 -0.32 -4.68 q-0.36 -2.44 -1.12 -4 q-1.8 -3.68 -6.44 -3.28 q-2.84 0.24 -5.24 2.24 q-2.04 1.68 -3.52 4.36 q1.68 0.76 4.16 1.24 q0.84 -1.16 2.18 -2 t2.66 -0.96 q1.56 -0.16 2.4 0.8 q0.88 1.04 0.52 3.16 q0 0.08 -0.04 0.12 q-0.04 0.24 -0.24 0.32 z M282.96 40.16 q0.28 -0.04 0.96 -0.04 q0.8 0 1.2 -0.04 q1.68 -0.08 2.44 -0.48 q0 -0.68 0.04 -2.44 q0.04 -3.96 -0.04 -6.12 q-0.12 -3.84 -0.68 -6.44 q-0.64 -3.12 -1.92 -4.64 q-1.4 -1.68 -3.68 -1.36 q-2.72 0.4 -6.64 3.48 q-0.08 0.08 -0.24 0.08 q-0.12 0.08 -0.28 0.08 q-0.4 0 -0.4 -0.4 q0 -2.48 -0.68 -2.8 q-0.32 -0.16 -1.12 -0.04 q-0.32 0 -0.88 0.12 q-0.88 0.12 -1.16 0.16 t-0.52 0.08 q-0.04 1.04 -0.2 4.44 q-0.16 3.44 -0.2 5.52 q-0.16 6.68 0.52 10.32 q1.2 0.04 3.08 0.04 l0.72 0 l0.92 0 q0.04 -1.72 0.08 -2.64 q0.16 -3.2 0.48 -5.76 q0.6 -5.04 1.76 -7.32 q0.8 -1.56 1.9 -1.82 t2.46 0.9 q1.24 1.12 1.56 2.32 q0.84 3.2 0.72 8.44 q-0.04 0.88 -0.08 2.6 q-0.12 2.6 -0.12 3.76 z M268.92 18.62 q0.4 -0.06 0.84 -0.1 l1.12 -0.2 l0.96 -0.12 q1 -0.12 1.56 0.12 q1.04 0.48 1.12 2.84 q3.84 -2.96 6.64 -3.32 q2.72 -0.4 4.4 1.6 q1.44 1.68 2.12 5 q0.56 2.68 0.68 6.6 q0.08 2.16 0.04 6.12 q-0.04 1.72 -0.04 2.36 q0.24 0.32 -0.08 0.56 q-0.92 0.68 -3.12 0.8 q-0.4 0.04 -1.24 0.04 q-0.88 0.04 -1.24 0.04 q-0.28 0.04 -0.4 -0.24 q-0.12 -0.12 -0.12 -0.28 q0 -1.32 0.12 -4.08 q0.04 -1.72 0.08 -2.6 q0.12 -5.08 -0.68 -8.16 q-0.28 -1 -1.36 -1.96 q-1 -0.92 -1.76 -0.72 q-0.72 0.24 -1.32 1.4 q-1.12 2.16 -1.68 7.04 q-0.32 2.56 -0.48 5.68 l-0.08 3.04 q-0.04 0.4 -0.44 0.4 l-0.04 0 l-0.12 0 l-1.12 0 l-0.68 0 q-2 0 -3.24 -0.04 q-0.2 0 -0.32 -0.16 q-0.24 -0.04 -0.28 -0.32 q-0.76 -3.76 -0.6 -10.64 q0.04 -2.08 0.2 -5.56 q0.16 -3.4 0.2 -4.48 l0 -0.12 l0 -0.08 q-0.04 -0.4 0.36 -0.46 z"/></g>
			</g>
		</svg>
	